# xmcd
#
# Track frame offsets: 
#        150
#        31503
#        39081
#        44108
#        46362
#        50141
#        56333
#        60448
#        73324
#        77959
#        80929
#        89551
#        97335
#        106804
#        117976
#        131574
#        172785
#        195414
#        211606
#        225585
#        243900
#        254097
#
# Disc length: 3579 seconds
#
# Revision: 0
# Processed by: cddbd v1.5.2PL0 Copyright (c) Steve Scherf et al.
# Submitted via: ExactAudioCopy v0.99pb4
#
DISCID=330df916
DTITLE=Fou Ts'ong - CD 1 Schumann
DYEAR=1998
DGENRE=Classical
TTITLE0=Arabeske C-dur op. 18
TTITLE1=Kinderszenen op. 15 - Von fremden Ländern und Menschen
TTITLE2=Kuriose Geschichte
TTITLE3=Hasche-Mann
TTITLE4=Bittendes Kind
TTITLE5=Glückes genug
TTITLE6=Wichtige Begebenheit
TTITLE7=Träumerei
TTITLE8=Am Kamin
TTITLE9=Ritter vom Steckenpferd
TTITLE10=Fast zu ernst
TTITLE11=Fürchtenmachen
TTITLE12=Kind im Einschlummern
TTITLE13=Der Dichter spricht
TTITLE14=Kreisleriana op. 16 - Äußerst bewegt
TTITLE15=Sehr innig und nicht zu rasch
TTITLE16=Sehr aufgeregt
TTITLE17=Sehr langsam
TTITLE18=Sehr lebhaft
TTITLE19=Sehr langsam
TTITLE20=Sehr rasch
TTITLE21=Schnell und spielend
EXTD=
EXTT0=
EXTT1=
EXTT2=
EXTT3=
EXTT4=
EXTT5=
EXTT6=
EXTT7=
EXTT8=
EXTT9=
EXTT10=
EXTT11=
EXTT12=
EXTT13=
EXTT14=
EXTT15=
EXTT16=
EXTT17=
EXTT18=
EXTT19=
EXTT20=
EXTT21=
PLAYORDER=
